<?xml version="1.0" encoding="UTF-8" standalone="no"?> <!-- Created with Vectornator for iOS (http://vectornator.io/) --><!DOCTYPE svg PUBLIC "-//W3C//DTD SVG 1.1//EN" "http://www.w3.org/Graphics/SVG/1.1/DTD/svg11.dtd">
<svg style="fill-rule:evenodd;clip-rule:evenodd;stroke-linecap:round;stroke-linejoin:round;" xmlns:vectornator="http://vectornator.io" xmlns:xlink="http://www.w3.org/1999/xlink" xmlns="http://www.w3.org/2000/svg" xml:space="preserve" version="1.1" viewBox="0 0 256 128">
<metadata>
<vectornator:setting key="DimensionsVisible" value="1"/>
<vectornator:setting key="SnapToGrid" value="0"/>
<vectornator:setting key="SnapToPoints" value="1"/>
<vectornator:setting key="GuidesVisible" value="1"/>
<vectornator:setting key="RulersVisible" value="1"/>
<vectornator:setting key="SnapToEdges" value="1"/>
<vectornator:setting key="DisplayWhiteBackground" value="0"/>
<vectornator:setting key="SnapToGuides" value="0"/>
<vectornator:setting key="GridSpacing" value="16"/>
<vectornator:setting key="Units" value="Pixels"/>
<vectornator:setting key="DynamicGuides" value="1"/>
<vectornator:setting key="New" value="1"/>
</metadata>
<defs>
<linearGradient y1="64" id="LinearGradient" x1="16" y2="64" x2="240" gradientUnits="userSpaceOnUse" gradientTransform="matrix(1 0 0 1 0 0)">
<stop stop-color="#e7395e" offset="0.563107"/>
<stop stop-color="#ffbebe" offset="1"/>
</linearGradient>
</defs>
<g id="レイヤー 1" vectornator:layerName="レイヤー 1">
<path stroke="#ffffff" stroke-opacity="0" stroke-width="3.1" d="M80+112C80+112+96+96+128+96C160+96+176+112+176+112L240+64C240+64+192+16+128+16C64+16+16+64+16+64" fill="url(#LinearGradient)" stroke-linecap="round" opacity="0.996481" stroke-linejoin="round"/>
<g opacity="0.996481">
<path d="M68.3124+33.2124C68.3124+33.4131+68.1691+33.5278+67.8824+33.5564C66.3631+33.6138+65.4099+33.7858+65.0229+34.0724C64.6359+34.3591+64.2131+35.1761+63.7544+36.5234C63.5251+37.1541+63.1811+38.1144+62.7224+39.4044C61.2031+43.6184+58.7521+50.7278+55.3694+60.7324C54.9108+62.1658+54.5811+62.8824+54.3804+62.8824C54.1224+62.8824+53.9074+62.6244+53.7354+62.1084C53.3628+60.9331+52.8898+59.6001+52.3164+58.1094C51.4564+55.7874+50.2954+52.7058+48.8334+48.8644C48.2028+47.1731+47.2281+44.6648+45.9094+41.3394C45.1928+39.5334+44.4761+37.5268+43.7594+35.3194C43.3868+34.1154+42.6128+33.5278+41.4374+33.5564L40.0184+33.5994C39.6744+33.5994+39.5024+33.4704+39.5024+33.2124C39.5024+32.9544+40.0184+32.8254+41.0504+32.8254L48.3174+32.8684C48.6328+32.8684+49.0198+32.8684+49.4784+32.8684C49.9658+32.8398+50.5104+32.8254+51.1124+32.8254L53.5204+32.8254C54.0651+32.8254+54.3374+32.9544+54.3374+33.2124C54.3374+33.4418+53.8358+33.5708+52.8324+33.5994C51.1984+33.6281+50.3814+33.8861+50.3814+34.3734C50.3814+34.4308+50.6251+35.1904+51.1124+36.6524C53.2911+43.1884+55.2118+48.5348+56.8744+52.6914C57.2471+51.7741+57.9351+49.8678+58.9384+46.9724C59.1964+46.1984+59.7984+44.4498+60.7444+41.7264C62.0918+37.7991+62.7654+35.4054+62.7654+34.5454C62.7654+34.0294+62.5504+33.7284+62.1204+33.6424C61.9484+33.6138+61.2891+33.5851+60.1424+33.5564C59.5691+33.5564+59.2824+33.4131+59.2824+33.1264C59.2824+32.8684+59.4831+32.7394+59.8844+32.7394L61.9054+32.7394L63.4104+32.7824L64.5284+32.7824C64.8151+32.7824+65.1448+32.7681+65.5174+32.7394C65.9188+32.7394+66.3774+32.7394+66.8934+32.7394L67.6674+32.7394C68.0974+32.7394+68.3124+32.8971+68.3124+33.2124Z" opacity="0.996481" fill="#ffffff"/>
<path d="M80.2234+62.2804C80.2234+62.5098+80.0371+62.6244+79.6644+62.6244C79.4638+62.6244+79.2774+62.6101+79.1054+62.5814C77.3854+62.4954+75.9091+62.4524+74.6764+62.4524C73.3864+62.4524+71.4944+62.4954+69.0004+62.5814C68.1691+62.6101+67.5528+62.6244+67.1514+62.6244C66.7214+62.6244+66.5064+62.4954+66.5064+62.2374C66.5064+62.0941+66.5853+62.0081+66.7429+61.9794C66.9006+61.9508+67.4524+61.9221+68.3984+61.8934C69.2871+61.7214+69.8031+61.4563+69.9464+61.0979C70.0898+60.7396+70.1614+59.5858+70.1614+57.6364L70.1614+36.9534C70.1614+36.4088+70.1614+35.8784+70.1614+35.3624C70.1328+34.8464+70.1184+34.6028+70.1184+34.6314C70.1184+33.9148+69.4018+33.5564+67.9684+33.5564C67.1658+33.5564+66.7644+33.4561+66.7644+33.2554C66.7644+33.0548+66.8218+32.9401+66.9364+32.9114C67.0511+32.8828+67.4238+32.8684+68.0544+32.8684C67.7678+32.8684+68.2838+32.8828+69.6024+32.9114C70.9211+32.9401+72.0534+32.9544+72.9994+32.9544L75.1924+32.9544C75.6511+32.9544+76.3033+32.9329+77.1489+32.8899C77.9946+32.8469+78.5894+32.8254+78.9334+32.8254L79.3634+32.8254C79.7361+32.8254+79.9224+32.9401+79.9224+33.1694C79.9224+33.3414+79.8579+33.4489+79.7289+33.4919C79.5999+33.5349+79.1628+33.5708+78.4174+33.5994C77.5288+33.6568+76.9841+33.8431+76.7834+34.1584L76.6544+34.9754L76.6544+59.2704C76.6544+60.5031+76.7906+61.2341+77.0629+61.4634C77.3353+61.6928+78.2598+61.8504+79.8364+61.9364C80.0944+61.9651+80.2234+62.0798+80.2234+62.2804Z" opacity="0.996481" fill="#ffffff"/>
<path d="M106.496+53.1644L106.453+53.8954C106.453+54.0388+106.382+54.9418+106.238+56.6044C106.124+57.8658+106.066+58.8404+106.066+59.5284C106.066+60.3884+106.081+61.1051+106.109+61.6784C106.138+61.8791+106.152+62.1228+106.152+62.4094C106.152+62.7248+106.081+62.8824+105.937+62.8824C105.794+62.8824+105.636+62.7391+105.464+62.4524C104.834+61.4204+104.16+60.7468+103.443+60.4314C101.293+62.2661+98.9858+63.1834+96.5204+63.1834C92.7651+63.1834+89.4541+61.7788+86.5874+58.9694C83.5488+55.9881+82.0294+52.2328+82.0294+47.7034C82.0294+43.3174+83.3983+39.6553+86.1359+36.7169C88.8736+33.7786+92.2921+32.3094+96.3914+32.3094C98.2834+32.3094+99.9748+32.7394+101.465+33.5994C102.325+34.0868+102.956+34.3304+103.357+34.3304C103.959+34.3304+104.518+34.0581+105.034+33.5134C105.407+33.1121+105.636+32.9114+105.722+32.9114C105.837+32.9114+105.894+33.0118+105.894+33.2124C105.894+33.2984+105.88+33.4274+105.851+33.5994C105.679+34.5741+105.593+35.7781+105.593+37.2114C105.593+37.3548+105.608+37.9424+105.636+38.9744C105.636+39.9778+105.636+40.6514+105.636+40.9954L105.636+41.9414C105.636+42.4574+105.493+42.7154+105.206+42.7154C104.977+42.7154+104.748+42.1564+104.518+41.0384C103.486+35.8784+101.121+33.2984+97.4234+33.2984C94.4994+33.2984+92.3781+35.1904+91.0594+38.9744C90.1421+41.5544+89.6834+44.6504+89.6834+48.2624C89.6834+53.6231+90.7728+57.5504+92.9514+60.0444C94.0981+61.3631+95.6031+62.0224+97.4664+62.0224C101.508+62.0224+104.16+59.3278+105.421+53.9384C105.622+53.0498+105.851+52.6054+106.109+52.6054C106.396+52.6054+106.525+52.7918+106.496+53.1644Z" opacity="0.996481" fill="#ffffff"/>
<path d="M133.457+40.8234C133.457+41.0528+133.357+41.1674+133.156+41.1674C132.841+41.1674+132.554+40.6084+132.296+39.4904C131.78+37.2831+131.064+35.7781+130.146+34.9754C129.229+34.1728+127.767+33.7714+125.76+33.7714C124.986+33.7714+124.313+33.8001+123.739+33.8574L123.782+60.0014C123.811+60.7181+124.012+61.1768+124.384+61.3774C124.757+61.5781+125.76+61.7501+127.394+61.8934C127.71+61.9221+127.867+62.0511+127.867+62.2804C127.867+62.5671+127.638+62.7104+127.179+62.7104C127.093+62.7104+126.878+62.6961+126.534+62.6674C126.104+62.6388+125.746+62.6244+125.459+62.6244L121.03+62.4954L113.72+62.6244C113.319+62.6244+113.118+62.5098+113.118+62.2804C113.118+62.1084+113.176+62.0081+113.29+61.9794C113.405+61.9508+113.878+61.9221+114.709+61.8934C116.286+61.8361+117.132+61.4634+117.246+60.7754C117.304+60.4028+117.332+57.4931+117.332+52.0464L117.332+33.8574C117.017+33.8288+116.644+33.8144+116.214+33.8144C113.921+33.8144+112.251+34.2373+111.205+35.0829C110.159+35.9286+109.478+37.4264+109.162+39.5764C108.962+40.8378+108.704+41.4684+108.388+41.4684C108.13+41.4684+108.001+41.2964+108.001+40.9524C108.001+40.7231+108.059+39.9348+108.173+38.5874C108.403+35.7781+108.546+33.8574+108.603+32.8254L109.248+32.8254L112.387+32.7824C112.473+32.7824+113.47+32.8111+115.376+32.8684C117.282+32.9258+119.712+32.9544+122.664+32.9544C124.298+32.9544+125.76+32.9401+127.05+32.9114C128.34+32.8828+129.516+32.8684+130.576+32.8684C131.522+32.8684+132.239+32.8398+132.726+32.7824C132.812+34.6458+133.027+37.0251+133.371+39.9204C133.429+40.4078+133.457+40.7088+133.457+40.8234Z" opacity="0.996481" fill="#ffffff"/>
<path d="M162.353+47.7464C162.353+52.0464+161.013+55.6799+158.333+58.6469C155.653+61.6139+152.363+63.0974+148.464+63.0974C144.652+63.0974+141.384+61.5924+138.66+58.5824C135.937+55.5724+134.575+51.9461+134.575+47.7034C134.575+43.3461+135.93+39.7054+138.639+36.7814C141.348+33.8574+144.709+32.3954+148.722+32.3954C152.592+32.3954+155.832+33.8646+158.44+36.8029C161.049+39.7413+162.353+43.3891+162.353+47.7464ZM154.785+48.4344C154.785+42.7298+154.112+38.5158+152.764+35.7924C151.876+34.0151+150.471+33.1264+148.55+33.1264C146.601+33.1264+145.046+34.3734+143.885+36.8674C142.724+39.3614+142.143+42.7011+142.143+46.8864C142.143+52.9638+143.175+57.5074+145.239+60.5174C146.099+61.7788+147.346+62.4094+148.98+62.4094C150.872+62.4094+152.205+61.5064+152.979+59.7004C154.183+56.8911+154.785+53.1358+154.785+48.4344Z" opacity="0.996481" fill="#ffffff"/>
<path d="M191.507+60.9044C191.507+62.5098+190.461+63.3124+188.368+63.3124C185.731+63.3124+183.624+62.4811+182.047+60.8184C180.815+59.5284+180.112+58.1524+179.94+56.6904L179.51+53.1644C179.224+50.9284+178.701+49.3661+177.941+48.4774C177.181+47.5888+175.956+47.1588+174.264+47.1874L174.264+56.9484C174.264+59.2131+174.279+60.4314+174.307+60.6034C174.307+61.0908+174.508+61.4276+174.909+61.6139C175.311+61.8003+176.07+61.8934+177.188+61.8934C177.876+61.8934+178.22+62.0224+178.22+62.2804C178.22+62.5098+178.048+62.6244+177.704+62.6244L173.533+62.5814C173.533+62.5814+173.304+62.5814+172.845+62.5814C172.329+62.6101+171.842+62.6244+171.383+62.6244L168.287+62.6244C168.001+62.6244+167.671+62.6101+167.298+62.5814C166.983+62.5814+166.782+62.5814+166.696+62.5814L164.718+62.6244C164.317+62.6244+164.116+62.5098+164.116+62.2804C164.116+62.0224+164.704+61.8648+165.879+61.8074C166.854+61.7501+167.427+61.5208+167.599+61.1194C167.685+60.9188+167.728+60.3168+167.728+59.3134L167.728+37.1684C167.728+35.6778+167.7+34.7963+167.642+34.5239C167.585+34.2516+167.399+34.0438+167.083+33.9004C166.682+33.7284+166.037+33.6424+165.148+33.6424C164.518+33.6424+164.202+33.5134+164.202+33.2554C164.202+33.0548+164.331+32.9329+164.589+32.8899C164.847+32.8469+165.535+32.8254+166.653+32.8254C166.653+32.8254+166.911+32.8254+167.427+32.8254C167.943+32.8541+168.445+32.8684+168.932+32.8684L170.351+32.8684C170.38+32.8684+170.681+32.8541+171.254+32.8254C171.799+32.8254+172.315+32.8254+172.802+32.8254L175.296+32.8254C179.31+32.8254+182.047+33.1408+183.509+33.7714C184.656+34.2588+185.573+35.0041+186.261+36.0074C186.949+37.0108+187.293+38.1144+187.293+39.3184C187.293+42.0704+185.86+44.1058+182.993+45.4244C181.732+45.9978+179.869+46.4278+177.403+46.7144L177.36+46.9724C180.485+47.1731+182.75+47.9973+184.154+49.4449C185.559+50.8926+186.405+53.2361+186.691+56.4754C186.921+59.0554+187.279+60.6679+187.766+61.3129C188.254+61.9579+188.755+62.2804+189.271+62.2804C189.701+62.2804+189.916+62.1658+189.916+61.9364C189.916+61.8218+189.752+61.6641+189.422+61.4634C189.092+61.2628+188.927+60.9761+188.927+60.6034C188.927+59.8294+189.357+59.4424+190.217+59.4424C191.077+59.4424+191.507+59.9298+191.507+60.9044ZM180.628+39.1894C180.628+35.4914+179.166+33.6424+176.242+33.6424C175.296+33.6424+174.709+33.9578+174.479+34.5884C174.336+34.9898+174.264+36.5521+174.264+39.2754L174.264+46.4134C176.5+46.4421+178.12+45.8831+179.123+44.7364C180.127+43.5898+180.628+41.7408+180.628+39.1894Z" opacity="0.996481" fill="#ffffff"/>
<path d="M217.264+33.2984C217.264+33.4991+217.078+33.6138+216.705+33.6424C215.014+33.7284+213.996+33.9291+213.652+34.2444C213.337+34.3018+212.248+36.4374+210.384+40.6514C209.983+41.5688+209.381+42.8874+208.578+44.6074C207.575+46.6141+206.987+47.9256+206.815+48.5419C206.643+49.1583+206.557+50.2834+206.557+51.9174L206.6+60.5604C206.6+61.0478+206.808+61.3703+207.224+61.5279C207.64+61.6856+208.464+61.7788+209.696+61.8074C210.327+61.8074+210.642+61.9508+210.642+62.2374C210.642+62.4668+210.37+62.5814+209.825+62.5814C209.711+62.5814+209.381+62.5671+208.836+62.5384C208.177+62.5384+207.26+62.5241+206.084+62.4954L202.644+62.4524C202.558+62.4524+202.186+62.4668+201.526+62.4954C200.724+62.5241+200.007+62.5384+199.376+62.5384L196.667+62.5814C196.209+62.5814+195.979+62.4668+195.979+62.2374C195.979+62.0081+196.18+61.8934+196.581+61.8934C198.617+61.8648+199.735+61.6784+199.935+61.3344C200.136+61.1338+200.236+60.6751+200.236+59.9584L200.236+49.7674C199.434+47.5888+198.029+44.6361+196.022+40.9094C195.191+39.1608+194.016+36.9678+192.496+34.3304C192.095+33.8144+191.393+33.5564+190.389+33.5564L189.916+33.5564C189.802+33.5851+189.658+33.5994+189.486+33.5994C188.913+33.5994+188.626+33.4418+188.626+33.1264C188.626+32.8684+188.927+32.7394+189.529+32.7394C189.443+32.7394+189.565+32.7538+189.895+32.7824C190.225+32.8111+190.776+32.8254+191.55+32.8254L196.624+32.8684C196.825+32.8684+197.14+32.8684+197.57+32.8684C198.086+32.8398+198.717+32.8254+199.462+32.8254L201.999+32.8254C202.286+32.8254+202.587+32.8111+202.902+32.7824C203.218+32.7824+203.361+32.7824+203.332+32.7824C203.906+32.7824+204.192+32.8971+204.192+33.1264C204.192+33.2984+204.128+33.3988+203.999+33.4274C203.87+33.4561+203.361+33.4848+202.472+33.5134C200.896+33.5708+200.107+33.9148+200.107+34.5454C200.107+35.0041+200.208+35.4699+200.408+35.9429C200.609+36.4159+201.283+37.8134+202.429+40.1354C203.433+42.1421+204.637+44.4928+206.041+47.1874C206.93+45.6108+208.191+43.0021+209.825+39.3614C211.058+36.6381+211.674+35.0328+211.674+34.5454C211.674+33.9148+211.259+33.5994+210.427+33.5994C209.166+33.6281+208.535+33.4991+208.535+33.2124C208.535+32.8971+208.808+32.7538+209.352+32.7824L210.556+32.8254C211.359+32.8541+212.721+32.8684+214.641+32.8684L216.275+32.8684C216.935+32.8684+217.264+33.0118+217.264+33.2984Z" opacity="0.996481" fill="#ffffff"/>
</g>
<path stroke="#ffffff" stroke-width="3.1" d="M25.9946+94.6466C26.3145+94.0068+26.1405+93.2276+26.3249+92.5822C26.833+90.8038+28.2991+87.7562+29.9583+86.7192C33.9314+84.236+35.5919+87.9304+34.9955+91.5087C34.6867+93.3615+33.5516+94.8896+33.0962+96.711" fill="none" stroke-linecap="round" opacity="0.996481" stroke-linejoin="round"/>
<path stroke="#ffffff" stroke-width="3.1" d="M32.7659+96.9588C35.5921+96.2522+38.3919+98.2135+39.8675+100.427C40.4547+101.308+40.6518+103.634+39.3721+104.06C37.5151+104.679+34.7973+103.935+33.0136+103.4C32.4185+103.221+32.0255+102.739+31.3621+102.739" fill="none" stroke-linecap="round" opacity="0.996481" stroke-linejoin="round"/>
<path stroke="#ffffff" stroke-width="3.1" d="M30.9492+102.574C30.763+103.692+30.1+104.689+29.628+105.712C29.1948+106.65+28.6835+107.069+27.9765+107.776C27.5582+108.195+27.222+108.248+26.6552+108.437C22.2006+109.922+22.5783+105.884+22.8567+102.822C22.9267+102.051+23.1683+100.88+23.8476+100.427" fill="none" stroke-linecap="round" opacity="0.996481" stroke-linejoin="round"/>
<path stroke="#ffffff" stroke-width="3.1" d="M24.2605+100.675C24.3706+100.675+24.7004+100.686+24.5908+100.675C23.4222+100.558+22.0096+100.45+20.9574+99.849C19.6505+99.1021+16.7376+94.6971+16.9938+93.1602C17.6335+89.3218+24.1053+92.7634+25.9946+93.5731" fill="none" stroke-linecap="round" opacity="0.996481" stroke-linejoin="round"/>
<path stroke="#ffffff" stroke-width="3.1" d="M20.1317+94.8943C20.1317+94.8386+20.1951+93.4714+20.462+93.7383C21.6876+94.9639+22.9328+96.1811+24.0128+97.5368C24.2519+97.8369+24.8492+99.849+23.765+99.849C22.2429+99.849+19.4901+94.7758+20.3794+93.7383C20.7688+93.284+22.3082+93.5638+22.5264+93.6557C24.372+94.4328+26.1625+96.3164+25.912+98.4451C25.8386+99.0691+25.5799+100.347+25.0037+100.097C23.1862+99.3065+20.6155+94.7684+23.2696+93.4905C27.0594+91.6658+28.9554+98.8616+26.1598+99.6838C25.2428+99.9535+24.6627+98.0731+24.5908+97.8671C24.011+96.205+23.7195+93.6884+25.6643+92.7474C28.4425+91.4031+30.3617+93.9373+29.628+96.5459C29.4534+97.1667+28.9662+98.3207+28.3893+98.0323C27.4601+97.5676+27.1049+95.4609+27.0681+94.8118C26.9629+92.9535+27.6478+90.5598+29.5454+89.7746C32.5735+88.5216+32.0785+93.4431+31.6098+94.9769C31.4992+95.3391+31.1774+97.1449+30.1235+96.7936C28.2205+96.1593+28.8992+91.1774+30.0409+90.1049C30.3606+89.8045+32.0238+88.6823+32.6008+89.692C33.9077+91.9791+33.5377+96.9905+30.8666+98.28C30.5187+98.448+30.0737+98.4946+29.7106+98.3626C26.5597+97.2168+26.3166+93.1238+27.481+90.5178C27.9146+89.5473+28.6421+88.7082+29.7932+89.1966C31.0799+89.7424+31.7313+90.8474+32.1879+92.0867C33.1344+94.6558+31.5286+96.8941+29.8757+98.6929C29.3517+99.2631+28.0653+100.694+26.9855+100.262C25.1059+99.51+26.5151+91.2035+29.8757+94.564C32.4166+97.1049+31.2741+101+28.7197+102.987C28.2993+103.314+26.5584+104.23+25.8295+103.565C24.5207+102.37+24.6184+99.9577+24.6734+98.5277C24.7644+96.1621+27.9537+96.1986+29.1325+98.0323C30.47+100.113+30.0417+102.738+28.8022+104.721C27.5304+106.756+25.5121+106.518+24.3431+104.556C23.9193+103.844+23.622+103.05+23.4347+102.244C22.8579+99.759+24.8894+94.6081+28.3068+96.711C30.5955+98.1195+28.4021+102.229+27.2333+103.565C26.9615+103.876+25.9429+104.858+25.2514+104.556C23.2779+103.692+25.5827+97.702+28.2242+97.702C29.4801+97.702+34.8794+101.181+34.9955+102.574C35.0332+103.026+34.0212+102.536+33.6743+102.244C33.1344+101.788+30.2406+99.5934+30.4538+98.5277C30.6162+97.7155+32.2755+98.334+32.353+98.3626C33.8705+98.9216+37.0811+100.235+37.3076+102.161C37.5602+104.308+33.8391+100.595+33.922+99.9315C34.0898+98.5886+38.9878+101.088+36.9773+101.088" fill="none" stroke-linecap="round" opacity="0.996481" stroke-linejoin="round"/>
<path stroke="#ffffff" stroke-width="3.1" d="M8.40577+115.291C7.73342+114.282+7.75203+114.189+7.41485+112.896C5.96018+107.32+13.3604+109.25+13.3604+113.226" fill="none" stroke-linecap="round" opacity="0.996481" stroke-linejoin="round"/>
<path stroke="#ffffff" stroke-width="3.1" d="M14.6816+113.557C14.6816+113.028+15.7013+112.51+16.0854+112.318C16.8432+111.939+18.3933+111.124+19.3059+111.327C20.3314+111.555+22.2621+113.653+21.04+114.63C20.607+114.977+19.9338+115.125+19.4711+115.456C18.9805+115.806+18.5589+116.3+17.9847+116.529" fill="none" stroke-linecap="round" opacity="0.996481" stroke-linejoin="round"/>
<path stroke="#ffffff" stroke-width="3.1" d="M17.8195+117.355C18.4646+117.785+18.796+118.72+19.0582+119.42C20.0112+121.961+19.5474+124.166+16.0854+123.301C14.8811+123+14.2069+121.649+13.5255+120.741" fill="none" stroke-linecap="round" opacity="0.996481" stroke-linejoin="round"/>
<path stroke="#ffffff" stroke-width="3.1" d="M13.3604+120.741C11.9008+121.836+10.2765+122.62+8.3232+122.062C6.20254+121.456+6.92078+118.208+8.3232+117.273" fill="none" stroke-linecap="round" opacity="0.996481" stroke-linejoin="round"/>
<path stroke="#ffffff" stroke-width="3.1" d="M9.39669+113.144C10.9015+113.445+11.0254+115.07+11.1308+116.282C11.1513+116.518+10.9365+116.951+10.7179+116.86C9.63724+116.409+7.89899+112.07+10.0573+112.07C12.3136+112.07+12.6105+117.047+11.4611+116.942C9.67487+116.78+8.64179+112.52+10.9657+112.153C13.3647+111.774+13.4557+117.105+12.0392+118.016C10.7621+118.837+9.73786+115.79+10.5528+115.043C11.7821+113.916+14.1244+116.018+14.3513+117.19C14.3871+117.375+14.2345+119.713+13.1952+119.089C9.57118+116.915+13.705+113.681+16.5809+114.135C17.5635+114.29+17.5463+116.911+16.6634+117.107C15.1818+117.437+16.1903+112.468+18.7279+113.639C19.5976+114.041+18.6034+115.317+18.315+115.621C17.7707+116.196+12.9475+119.073+12.9475+116.777C12.9475+116.035+14.1261+116.889+14.9293+117.603C16.0026+118.557+17.5513+119.985+16.9112+121.649C16.0998+123.759+14.2612+118.023+14.2687+118.016C14.5625+117.722+17.3443+120.881+17.4066+121.567C17.4575+122.126+16.2465+121.508+15.7551+121.236C15.1334+120.893+14.5857+120.429+14.021+119.998C13.2449+119.405+12.4071+118.856+11.7914+118.098C11.6571+117.933+11.4674+116.529+11.4611+116.529C11.0473+116.529+11.5437+117.354+11.5437+117.768C11.5437+118.511+11.4561+119.577+10.6353+119.915C9.80047+120.259+7.98533+119.54+8.81866+118.429C9.77545+117.153+9.94007+119.508+9.80958+119.998C9.30584+121.887+8.41346+119.301+8.3232+118.759" fill="none" stroke-linecap="round" opacity="0.996481" stroke-linejoin="round"/>
<path stroke="#ffffff" stroke-width="3.1" d="M210.652+102.146C207.458+98.9521+205.639+91.4089+211.651+90.0729C214.471+89.4463+216.519+92.8453+217.813+94.7356C218.06+95.0973+219.539+97.2511+219.395+96.8172" fill="none" stroke-linecap="round" opacity="0.996481" stroke-linejoin="round"/>
<path stroke="#ffffff" stroke-width="3.1" d="M219.728+96.4009C219.728+96.5674+219.846+97.0182+219.728+96.9005C219.181+96.3533+222.166+93.7944+222.725+93.4867C223.522+93.0487+224.324+93.2045+225.14+92.9038C225.804+92.6593+226.287+91.9926+226.972+91.8214C227.887+91.5926+231.622+91.8234+232.384+92.7373C232.851+93.2984+233.003+94.3664+233.05+95.0687C233.326+99.2138+227.452+100.282+224.724+101.646" fill="none" stroke-linecap="round" opacity="0.996481" stroke-linejoin="round"/>
<path stroke="#ffffff" stroke-width="3.1" d="M223.641+102.396C224.563+101.935+225.665+104.312+225.972+104.977C227.014+107.234+228.176+112.043+224.39+112.387C223.719+112.448+222.755+112.511+222.142+112.221C221.061+111.709+220.475+111.295+219.728+110.472C218.905+109.567+218.244+108.941+217.896+107.725" fill="none" stroke-linecap="round" opacity="0.996481" stroke-linejoin="round"/>
<path stroke="#ffffff" stroke-width="3.1" d="M217.48+106.725C217.029+107.326+216.371+107.716+215.814+108.224C214.571+109.359+208.374+113.659+207.072+111.055C205.799+108.509+208.23+105.85+210.153+104.477C210.482+104.242+212.273+102.545+212.734+102.729C214.572+103.464+212.882+108.602+211.402+108.391C210.461+108.256+209.739+106.278+210.069+105.477C210.762+103.795+213.442+104.311+214.566+105.06C215.131+105.437+215.409+106.166+215.065+106.809C213.908+108.969+210.806+109.642+208.82+108.224C208.607+108.072+208.435+107.818+208.404+107.558C208.039+104.453+218.405+102.552+215.814+106.725C214.765+108.415+212.816+109.519+210.902+109.806C210.296+109.897+209.219+110.234+209.07+109.64C208.631+107.882+212.844+104.084+213.816+102.812C214.398+102.051+214.809+101.571+214.732+100.647C214.726+100.569+214.639+100.453+214.566+100.481C213.679+100.813+212.678+105.26+211.651+104.477C209.529+102.86+209.425+98.6778+209.653+96.3176C209.682+96.0193+209.929+95.1525+210.319+94.9854C212.421+94.0846+213.804+102.401+212.484+102.979C211.565+103.38+210.887+101.649+210.486+100.731C209.933+99.4649+208.604+96.0431+210.236+94.8189C211.156+94.1284+212.117+94.5915+212.984+94.9854C215.324+96.0493+215.873+98.6388+215.398+101.064C215.24+101.873+214.67+103.442+213.4+103.145C212.126+102.848+211.255+100.514+210.985+99.7314C210.126+97.2387+210.31+94.2903+212.817+92.8206C213.257+92.5625+213.725+92.1814+214.232+92.2377C215.544+92.3835+215.522+94.5986+215.731+95.9013C215.939+97.1965+216.087+98.5043+216.147+99.8146C216.183+100.585+216.391+103.544+215.481+104.561C214.877+105.236+213.829+103.61+213.4+102.812C212.263+100.695+211.436+98.3203+210.902+95.9846C210.783+95.4659+210.239+93.8022+210.902+93.3202C211.594+92.8167+212.186+93.7861+212.484+94.1528C213.785+95.7535+215.158+97.9574+214.732+100.148C214.651+100.564+214.489+101.2+214.066+101.23C212.044+101.375+207.95+95.6722+210.985+93.9863C213.957+92.335+213.041+93.6172+213.733+95.7348C214.023+96.6216+214.49+97.4416+214.815+98.3159C215.202+99.3533+215.325+100.044+215.565+101.064C215.591+101.175+215.62+101.508+215.648+101.397C215.929+100.273+214.995+98.8153+215.565+97.7331C216.175+96.5733+218.077+98.8211+218.812+100.481C219.356+101.709+220.616+104.998+219.561+106.476C219.161+107.037+218.365+105.715+217.979+105.143C217.241+104.048+214.768+100.001+215.315+98.5657C215.653+97.6775+217.573+98.4711+217.729+98.5657C218.487+99.0237+219.163+99.6324+219.728+100.314C220.508+101.257+221.203+102.288+221.726+103.395C222.361+104.74+223.217+106.57+222.392+107.808C221.869+108.593+220.46+107.231+219.894+106.476C219.326+105.718+218.876+104.878+218.396+104.061C217.879+103.182+216.43+101.24+217.896+100.314C219.506+99.2974+221.431+101.67+222.059+102.729C223.081+104.451+223.762+106.79+223.724+108.807C223.715+109.281+223.641+109.912+223.225+110.139C222.12+110.742+221.005+108.741+220.394+107.641C219.983+106.902+219.666+106.111+219.395+105.31C219.136+104.548+217.803+99.7753+219.311+99.3983C220.554+99.0878+221.48+100.225+222.142+101.064C222.915+102.043+223.583+103.112+224.141+104.228C224.699+105.343+225.17+106.514+225.473+107.725C225.809+109.067+225.763+111.137+225.14+111.222C223.699+111.418+222.971+109.223+222.226+107.974C220.773+105.541+219.208+102.984+219.062+100.064C219.018+99.1998+219.089+98.4755+220.061+98.2327C223.408+97.3959+224.873+105.389+223.558+107.142C223.345+107.426+222.904+106.783+222.725+106.476C222.351+105.832+222.026+105.159+221.726+104.477C221.22+103.326+220.672+102.185+220.311+100.98C219.839+99.4099+219.054+97.3621+220.061+96.0678C220.368+95.6729+220.989+95.6819+221.476+95.5683C223.63+95.0657+225.349+98.338+224.39+100.148C223.952+100.977+223.138+100.153+222.892+99.8146C221.8+98.3138+222.68+96.0935+224.474+95.7348C227.079+95.2137+226.728+99.8459+225.723+100.481C223.974+101.585+223.208+97.8429+223.225+97.067C223.269+95.0979+224.82+94.0039+226.555+93.57C229.048+92.9467+229.087+95.9651+227.721+97.2335C227.438+97.4959+226.963+98.1174+226.722+97.8163C226.31+97.3012+227.5+95.8245+227.721+95.485C230.368+91.4259+231.174+98.0824+229.636+98.649C227.685+99.3676+226.867+95.2086+229.136+94.2361C229.383+94.1302+230.552+93.9687+230.552+94.5691C230.552+95.0004+229.546+95.8452+229.303+96.0678C227.899+97.3546+226.281+98.2145+224.307+97.7331C223.012+97.4171+221.867+96.1656+220.394+96.5674C218.689+97.0324+218.11+99.7127+216.231+99.9812C215.132+100.138+214.028+97.1002+214.566+97.8163" fill="none" stroke-linecap="round" opacity="0.996481" stroke-linejoin="round"/>
<path stroke="#ffffff" stroke-width="3.1" d="M237.379+110.181C237.759+106.96+235.405+102.404+239.544+101.813C241.993+101.463+242.569+104.724+243.125+106.392C243.28+106.86+243.403+107.316+243.458+107.808C243.484+108.044+243.619+108.694+243.707+108.474C243.905+107.979+243.701+107.42+244.207+107.058C246.249+105.6+250.908+106.799+251.368+109.556C251.729+111.723+250.26+113.568+248.12+113.969C247.922+114.006+245.373+113.667+245.373+113.803C245.373+115.543+246.43+117.306+246.039+119.132C245.482+121.728+241.314+121.994+239.961+119.964C239.266+118.922+239.474+115.565+239.045+115.135C238.93+115.021+238.878+115.413+238.795+115.551C238.534+115.987+238.479+116.376+237.962+116.634C237.123+117.053+236.137+117.127+235.215+117.05C233.36+116.895+231.397+114.123+233.05+112.471C234.314+111.206+237.191+111.778+237.379+110.181Z" fill="none" stroke-linecap="round" opacity="0.996481" stroke-linejoin="round"/>
<path stroke="#ffffff" stroke-width="3.1" d="M235.714+114.219C234.61+113.115+235.942+112.859+236.131+114.053C236.151+114.183+235.955+116.525+235.131+115.551C233.479+113.598+235.056+111.247+237.379+111.471C239.38+111.665+238.864+114.116+237.546+114.885C237.426+114.955+237.213+114.996+237.13+114.885C236.142+113.568+236.545+111.061+238.129+110.389C238.675+110.157+239.29+110.137+239.877+110.056C242.005+109.763+240.429+113.009+240.044+112.97C238.85+112.851+237.909+107.849+237.962+106.809C237.976+106.55+238.012+104.926+238.878+104.977C240.93+105.098+241.367+111.973+240.377+113.053C239.99+113.475+239.443+112.274+239.295+111.721C238.969+110.51+238.127+106.966+239.378+105.976C239.772+105.664+240.392+105.676+240.876+105.81C241.865+106.082+242.073+107.387+242.209+108.141C242.447+109.466+243.076+115.302+241.376+116.384C240.87+116.706+240.693+115.414+240.377+113.969C240.154+112.948+239.966+111.919+239.794+110.889C239.605+109.754+239.422+108.618+239.295+107.475C239.163+106.288+238.501+104.704+239.378+103.895C240.568+102.796+241.229+107.026+241.293+107.308C241.866+109.84+242.384+112.465+242.625+115.052C242.661+115.439+242.742+115.847+242.625+116.217C242.56+116.424+242.261+116.803+242.125+116.634C240.99+115.215+240.812+113.235+240.377+111.471C239.972+109.832+239.314+106.426+239.211+104.644C239.189+104.252+239.056+103.703+239.378+103.478C239.619+103.309+239.901+103.803+240.044+104.061C240.633+105.126+241.154+106.238+241.543+107.392C242.491+110.205+243.063+113.42+243.291+116.384C243.34+117.021+243.713+117.757+243.374+118.299C243.073+118.782+242.43+117.575+242.209+117.05C241.661+115.752+241.003+113.362+240.793+111.971C240.659+111.084+240.52+109.467+241.126+109.723C243.222+110.605+243.732+114.383+243.957+116.217C244.159+117.86+243.916+119.711+243.208+119.465C242.589+119.249+242.364+118.453+242.042+117.883C240.914+115.887+239.611+112.655+240.044+110.306C240.112+109.939+240.44+109.595+240.793+109.473C241.645+109.178+243.087+109.792+243.624+110.389C244.961+111.874+244.825+114.593+244.04+116.301C243.852+116.711+242.967+118.452+241.959+117.883C239.572+116.534+240.918+109.99+242.958+108.724C245.097+107.396+246.465+112.295+245.706+113.053C245.534+113.225+244.907+112.15+244.956+110.556C244.984+109.662+245.421+109.354+246.289+109.39C246.948+109.417+249.221+111.015+248.037+111.804C246.968+112.517+246.346+110.219+246.788+109.556C247.104+109.083+248.277+109.194+248.453+109.723C248.664+110.353+247.963+111.197+247.621+111.638" fill="none" stroke-linecap="round" opacity="0.996481" stroke-linejoin="round"/>
<path stroke="#2fb1e1" stroke-width="3.1" d="M12.537+116.114C12.6674+115.918+12.7446+115.36+12.8603+115.273C14.1066+114.339+16.0214+116.326+15.5114+117.601C14.8656+119.216+11.5255+118.021+12.343+116.114C12.9195+114.769+15.3206+115.88+14.7355+117.342C14.1182+118.886+11.5935+118.956+12.0197+116.825C12.2749+115.549+13.9729+115.808+13.5716+117.213C13.434+117.695+11.6959+117.084+12.4723+116.179C12.4888+116.159+12.8248+115.73+12.9249+115.855C13.3899+116.436+13.6613+118.404+12.343+117.924C11.3037+117.546+12.1963+115.994+12.7956+115.661C13.5628+115.235+14.2729+117.827+13.5716+118.248C12.5539+118.858+11.6797+116.444+12.343+115.726C13.8245+114.121+14.9101+117.472+13.5716+117.472" fill="none" stroke-linecap="round" opacity="0.996481" stroke-linejoin="round"/>
<path stroke="#2fb1e1" stroke-width="3.1" d="M28.379+97.8794C28.3359+97.8363+28.2309+97.8081+28.2497+97.7501C28.4573+97.1063+28.3706+96.0439+29.0256+95.8749C29.6166+95.7224+29.9447+96.7067+30.2542+97.2328C30.5347+97.7096+30.2452+98.493+29.9309+98.8493C28.9521+99.9586+26.8005+98.1321+27.0211+96.9741C27.3338+95.3324+30.8581+95.3022+31.1594+96.9095C31.7341+99.9744+26.3195+99.6224+26.6978+96.9741C26.9782+95.0116+31.4402+96.0697+30.5128+98.2027C29.5605+100.393+25.8014+98.7705+26.7625+96.5862C27.6456+94.5791+32.4636+96.3313+29.9955+99.108C28.0112+101.34+25.5659+98.1366+26.8271+96.1335C27.3045+95.3754+28.4849+95.3929+29.1549+95.7456C30.3287+96.3633+31.4517+99.6672+29.2842+99.8839C28.712+99.9411+28.1286+99.7295+27.6031+99.4959C27.1952+99.3147+26.672+98.5208+26.6331+98.0734C26.4337+95.7795+31.9198+95.8258+29.6722+98.0734" fill="none" stroke-linecap="round" opacity="0.996481" stroke-linejoin="round"/>
<path stroke="#2fb1e1" stroke-width="3.1" d="M218.488+101.682C217.376+101.682+217.756+100.477+218.25+99.7723C218.544+99.3518+219.188+100.262+219.503+100.667C220.13+101.473+220.747+102.221+219.861+103.173C218.208+104.949+215.769+102.035+216.698+100.309C217.538+98.7494+220.043+100.693+219.92+101.92C219.646+104.661+215.819+104.557+215.684+101.801C215.56+99.2597+218.973+98.7324+219.861+101.025C220.921+103.765+216.192+104.965+215.744+101.741C215.244+98.14+221.067+98.7898+220.935+100.906C220.713+104.448+214.66+104.256+216.161+100.906C216.301+100.594+216.483+100.274+216.758+100.071C219.036+98.3833+221.446+103.102+218.548+103.651C216.004+104.132+213.68+99.5981+216.698+99.0563C219.431+98.5659+220.422+101.141+219.264+103.293C219.077+103.639+218.786+103.961+218.429+104.128C216.636+104.964+215.428+101.089+216.519+100.071C217.483+99.1715+221.425+103.543+217.772+102.935" fill="none" stroke-linecap="round" opacity="0.996481" stroke-linejoin="round"/>
<path stroke="#2fb1e1" stroke-width="3.1" d="M241.43+111.765C241.942+111.65+241.229+110.448+241.698+110.214C242.184+109.971+242.74+110.611+243.13+110.989C243.43+111.28+243.574+111.715+243.667+112.123C244.146+114.218+240.596+115.097+240.385+112.004C240.191+109.146+244.215+109.13+244.562+111.765C244.996+115.066+239.76+113.448+240.505+111.109C241.229+108.833+244.449+111.128+243.548+113.316C243.082+114.447+240.813+113.341+240.326+112.899C239.464+112.115+240.446+110.419+241.042+109.796C241.226+109.603+241.491+109.429+241.758+109.438C243.269+109.492+244.865+112.818+242.951+113.376C242.164+113.606+240.403+111.996+241.43+111.765Z" fill="none" stroke-linecap="round" opacity="0.996481" stroke-linejoin="round"/>
</g>
</svg>
