<?xml version="1.0" encoding="UTF-8" standalone="no"?> <!-- Created with Vectornator for iOS (http://vectornator.io/) --><!DOCTYPE svg PUBLIC "-//W3C//DTD SVG 1.1//EN" "http://www.w3.org/Graphics/SVG/1.1/DTD/svg11.dtd">
<svg style="fill-rule:evenodd;clip-rule:evenodd;stroke-linecap:round;stroke-linejoin:round;" xmlns:vectornator="http://vectornator.io" xmlns:xlink="http://www.w3.org/1999/xlink" xmlns="http://www.w3.org/2000/svg" xml:space="preserve" version="1.1" viewBox="0 0 64 64">
<metadata>
<vectornator:setting key="DimensionsVisible" value="1"/>
<vectornator:setting key="SnapToGrid" value="0"/>
<vectornator:setting key="SnapToPoints" value="1"/>
<vectornator:setting key="GuidesVisible" value="1"/>
<vectornator:setting key="RulersVisible" value="1"/>
<vectornator:setting key="SnapToEdges" value="1"/>
<vectornator:setting key="DisplayWhiteBackground" value="0"/>
<vectornator:setting key="SnapToGuides" value="1"/>
<vectornator:setting key="GridSpacing" value="16"/>
<vectornator:setting key="Units" value="Pixels"/>
<vectornator:setting key="DynamicGuides" value="1"/>
<vectornator:setting key="New" value="1"/>
</metadata>
<defs/>
<g id="レイヤー 1" vectornator:layerName="レイヤー 1">
<path stroke="#000000" stroke-width="2.95" d="M52.9045+9.00975C52.1335+9.78072+51.942+10.6449+51.2821+11.5447C49.6806+13.7287+48.3149+16.0298+46.7699+18.2371C45.3643+20.245+43.1845+21.6531+41.5985+23.5098C40.4758+24.8242+39.6562+26.4397+38.5058+27.7179C36.9602+29.4352+35.0116+30.7915+33.4866+32.5343C29.5711+37.0091+25.8968+41.8295+21.5215+45.8683C19.9885+47.2834+18.7405+48.9728+17.3641+50.5327C16.3857+51.6416+15.0824+52.206+14.1701+53.4225C13.8543+53.8436+12.1348+56.0034+11.8379+55.8054" fill="none" stroke-linecap="round" opacity="0.996481" stroke-linejoin="round"/>
<path stroke="#000000" stroke-width="2.95" d="M10.1648+8.55346C10.0092+8.35336+9.86687+8.14301+9.70851+7.94506C9.67865+7.90774+9.56979+7.8138+9.60711+7.84366C10.6899+8.70991+11.5911+9.9664+12.5984+10.9363C13.3588+11.6685+14.3012+12.144+15.0827+12.8629C18.3491+15.868+22.0509+18.5968+24.8677+22.0395C25.7513+23.1195+26.8478+24.1019+27.6561+25.2336C30.0952+28.6483+32.4058+32.2519+35.109+35.4749C38.1795+39.136+41.4054+42.7346+44.7926+46.1218C47.7671+49.0963+51.1837+51.6689+54.2734+54.5379C54.4676+54.7183+56.8915+56.6532+56.707+57.0222C56.602+57.2321+55.2671+55.8312+55.2367+55.8054C54.5136+55.1908+53.7569+54.6812+53.0566+54.0309C51.5421+52.6246+49.6588+51.8093+48.0373+50.5834C46.7481+49.6086+45.8633+48.1888+44.894+46.933C43.7626+45.4674+42.543+44.1068+41.4971+42.5728C38.4939+38.1681+35.9042+33.3074+31.7121+29.8473C29.955+28.3969+28.0564+27.6248+26.1352+26.5011C23.6302+25.0359+20.9623+22.902+19.1893+20.5692C18.4292+19.5691+17.7256+18.5212+17.1106+17.4259C16.5183+16.3708+16.3532+15.061+15.539+14.1304C14.249+12.6562+12.3568+12.2812+11.0774+10.8349C11.0529+10.8072+9.14931+8.15088+8.94802+8.55346C8.86832+8.71284+10.1182+9.95846+10.2155+10.0744C11.761+11.9171+13.5295+13.5466+15.2855+15.1951C19.2168+18.8857+22.8807+22.8501+26.997+26.349C29.7961+28.7282+32.9582+30.5654+35.7681+32.9399C38.1512+34.9539+40.8253+37.245+42.7646+39.683C42.9161+39.8734+44.8578+42.3193+43.9814+42.3193" fill="none" stroke-linecap="round" opacity="0.996481" stroke-linejoin="round"/>
<path stroke="#000000" stroke-width="2.95" d="M11.1788+11.5447C10.8402+11.3754+11.1017+11.9129+11.1788+12.001C11.4709+12.3349+11.7528+12.6775+12.0407+13.015C12.3048+13.3247+12.5641+13.6398+12.8519+13.9276C13.622+14.6977+14.4306+15.6561+15.3362+16.2598C18.8742+18.6185+21.3497+22.2378+24.2086+25.335C26.1069+27.3916+27.8914+29.8712+30.039+31.6724C34.2441+35.1993+38.4572+38.4203+42.2576+42.4207C43.4006+43.6239+44.2523+45.0924+45.2996+46.3753C46.3918+47.7133+47.6093+48.974+48.7471+50.2792C50.3615+52.1309+52.2888+54.3734+54.5776+55.4505C55.129+55.71+55.5842+56.0081+56.0479+56.4138C56.1472+56.5007+56.2587+56.7606+56.3521+56.6673C56.7078+56.3116+55.8111+55.0596+55.6423+54.7914C54.8383+53.5146+53.6842+52.3898+52.7524+51.1917C49.6506+47.2037+45.9947+43.5389+42.359+40.0379C41.1705+38.8934+39.9563+37.7708+38.7086+36.6917C37.725+35.8409+36.3481+34.9706+38.2016+36.6917C38.4732+36.9439+38.7256+37.2179+39.0128+37.4522C39.3691+37.7428+39.7803+37.9629+40.1282+38.2634C40.5262+38.607+40.852+39.0279+41.2436+39.3788C42.1639+40.2032+43.1361+40.9677+44.0828+41.7616C45.863+43.2547+47.622+44.7182+49.3048+46.3246C50.878+47.8262+52.2682+49.6282+53.9692+50.9889C55.0443+51.849+56.5067+52.5632+57.4675+53.5239" fill="none" stroke-linecap="round" opacity="0.996481" stroke-linejoin="round"/>
<path stroke="#000000" stroke-width="2.95" d="M51.7384+7.43807C52.2067+7.67219+51.9274+8.3128+51.7384+8.60415C51.4496+9.04936+51.1103+9.46025+50.7751+9.87164C49.8783+10.9722+48.5598+11.8409+47.6317+12.9643C46.2721+14.6102+45.1486+16.3632+43.9814+18.1357C42.6243+20.1965+40.9253+21.9997+39.5705+24.0675C36.8338+28.2447+33.7267+31.8117+30.4446+35.5256C27.0458+39.3716+23.9443+43.3396+20.254+46.8823C18.4953+48.5707+16.8743+50.4023+15.2348+52.2057C14.9594+52.5087+14.612+53.3718+14.1194+53.3718C13.6507+53.3718+14.435+52.4703+14.7278+52.1043C15.7971+50.7677+17+49.5491+18.0739+48.2005C19.3835+46.5559+19.5361+47.0381+20.8624+45.919C23.2186+43.931+25.3223+41.6118+27.0984+39.1253C29.2553+36.1057+32.0443+33.6171+34.4499+30.8105C36.8673+27.9902+38.8124+24.8272+41.1929+21.9888C43.196+19.6005+45.1654+17.1928+47.0741+14.7388C48.4126+13.0179+49.9081+11.9625+51.4342+10.48C52.6459+9.30298+53.6109+7.96871+55.2874+8.80695C55.5135+8.92001+55.2058+9.36904+55.0846+9.46605C54.6149+9.84178+54.1635+10.1123+53.7157+10.5814C52.5944+11.7561+51.5524+12.8146+50.5216+14.0797C49.4684+15.3724+48.7252+16.8829+47.6824+18.1864C45.6646+20.7087+43.2064+22.8791+41.1422+25.3857C34.3888+33.5863+27.6298+41.8775+19.6963+48.961C17.5863+50.8449+16.097+53.3513+13.9166+55.0956C13.6226+55.3308+13.0997+55.8577+12.7505+55.9575C11.4372+56.3327+11.8638+55.5605+11.3816+55.3998C11.3253+55.381+10.9518+55.3557+11.0774+55.1463C11.6818+54.139+12.8669+53.5162+13.7138+52.7634C14.2784+52.2615+14.7348+51.6134+15.2855+51.0903C16.977+49.4834+18.833+48.1623+20.5582+46.6288C21.8636+45.4684+22.7172+43.9356+23.9044+42.6742C25.1684+41.3312+27.3283+39.7774+27.8082+37.8578C27.8287+37.7758+27.6652+37.9501+27.6054+38.0099C27.4833+38.132+26.9465+38.6688+26.9463+38.669C26.3819+39.2536+25.7972+39.8182+25.2226+40.3928C24.2279+41.3874+23.3346+42.4452+22.282+43.384C21.3682+44.199+20.2551+44.6358+19.4428+45.5641C18.784+46.317+18.0866+47.0017+17.4148+47.7442C17.2705+47.9037+16.8295+48.3726+16.9585+48.2005C17.1455+47.9512+17.3723+47.734+17.5669+47.4907" fill="none" stroke-linecap="round" opacity="0.996481" stroke-linejoin="round"/>
<path stroke="#000000" stroke-width="2.95" d="M26.0338+39.5309C25.8373+39.6291+25.3438+39.9883+25.4254+39.7844C25.8368+38.7558+27.6652+36.9559+28.3152+36.1847C29.671+34.5762+31.0977+33.1037+32.4219+31.4696C34.8094+28.5234+37.2068+25.6405+39.6212+22.8C40.6152+21.6307+41.2882+20.0684+42.359+18.9976C43.6769+17.6797+44.9677+16.4926+46.1615+15.043C47.0592+13.9528+47.6566+12.4831+48.6457+11.494C49.664+10.4757+50.6622+9.6438+51.5863+8.60415C51.9671+8.17576+53.1457+7.45067+53.4622+7.38737C53.6279+7.35422+53.49+7.72766+53.4622+7.89436" fill="none" stroke-linecap="round" opacity="0.996481" stroke-linejoin="round"/>
<path stroke="#000000" stroke-width="2.95" d="M55.9718+54.7661C56.2217+55.5318+56.2989+55.2134+57.3661+55.4505C58.119+55.6178+55.7816+54.1833+55.9718+54.7661Z" fill="none" stroke-linecap="round" opacity="0.996481" stroke-linejoin="round"/>
<path stroke="#000000" stroke-width="2.95" d="M9.35361+9.61815C9.30163+9.60082+8.4839+9.31427+8.54242+9.41535C9.1606+10.4831+9.9449+11.4487+10.7225+12.4066C11.1141+12.8891+11.5642+13.3259+12.0407+13.7248C12.2963+13.9388+12.6132+14.0664+12.9026+14.2318C12.9682+14.2693+13.1437+14.3983+13.1054+14.3332C11.9688+12.401+10.1616+10.4641+8.18753+9.41535C8.05454+9.3447+6.95145+8.58569+6.61584+8.70555C6.14345+8.87427+7.06471+9.62614+7.42703+9.97304C7.94521+10.4692+8.45829+10.9715+8.99872+11.4433C9.94753+12.2717+11.8604+14.3174+13.2068+14.5867C13.2809+14.6015+13.154+14.4418+13.1054+14.3839C12.7975+14.0174+12.4675+13.6701+12.1421+13.3192C11.6056+12.7406+11.0649+12.1658+10.5197+11.5954C9.5866+10.6193+8.62417+9.66997+7.62983+8.75625C7.36527+8.51314+6.7315+8.39503+6.81864+8.04646C7.04187+7.15353+8.2692+8.88424+8.28892+8.90835C8.44802+9.1028+8.95942+9.6568+8.79592+9.46605C8.41748+9.02453+8.09307+8.53773+7.78193+8.04646C6.31843+5.73568+10.6233+10.3103+11.3309+10.0744C11.4111+10.0477+11.237+9.9329+11.1788+9.87164C10.9154+9.5944+10.6153+9.35182+10.3676+9.06045C9.81762+8.41341+9.30386+7.71889+8.64382+7.18457C8.55971+7.11648+8.42454+6.87911+8.39032+6.98177C8.22743+7.47044+9.05417+7.77007+9.40431+8.14786C9.78688+8.56063+10.107+9.03268+10.5197+9.41535C11.635+10.4495+12.89+11.3316+14.1701+12.1531C14.6218+12.4431+15.0537+12.8838+15.5897+12.9136C15.88+12.9297+15.2791+12.4182+15.0827+12.2038C14.9043+12.0092+14.6711+11.8727+14.4743+11.6968C13.8767+11.1628+13.3102+10.5938+12.6998+10.0744C12.1771+9.62975+11.6013+9.25024+11.0774+8.80695C10.6198+8.41977+10.2849+7.80553+9.70851+7.64086C9.32501+7.53129+10.1301+8.32846+10.4183+8.60415C10.9296+9.09325+11.5008+9.51565+12.0407+9.97304C13.3379+11.0721+14.7015+12.0941+16.0966+13.0657C16.4021+13.2784+17.3021+13.9187+16.9585+13.7755C15.4671+13.1541+13.3598+11.5966+12.3449+10.3279C12.2921+10.262+12.4891+10.4191+12.5477+10.48C12.9125+10.8594+13.253+11.2615+13.6124+11.6461C14.2163+12.2925+14.8161+12.9431+15.4376+13.5727C17.9051+16.0727+20.1481+18.1841+21.6736+21.3804C21.8104+21.667+21.959+21.9484+22.0792+22.2423C22.3175+22.8249+20.7259+21.1285+20.5582+20.772C20.5073+20.6639+20.3887+20.4303+20.5075+20.4171C21.4887+20.3081+22.6048+21.5511+23.1439+22.0902C23.7356+22.682+24.3022+23.2985+24.8677+23.9154C27.6066+26.9034+30.2886+29.967+32.9289+33.0413C33.2988+33.472+33.3136+33.5573+33.5373+34.0046" fill="none" stroke-linecap="round" opacity="0.996481" stroke-linejoin="round"/>
<path stroke="#000000" stroke-width="2.95" d="M17.7495+48.2255C17.7495+46.8795+15.6266+49.7384+15.5404+49.8533C14.8741+50.7417+14.0395+52.287+13.0988+52.9925C12.4178+53.5033+11.8236+53.6244+11.4129+54.4459" fill="none" stroke-linecap="round" opacity="0.996481" stroke-linejoin="round"/>
<path stroke="#000000" stroke-width="2.95" d="M2.1114+76.3043C2.1114+77.009+2.1114+77.7136+2.1114+78.4183" fill="none" stroke-linecap="round" opacity="0.996481" stroke-linejoin="round"/>
<path stroke="#000000" stroke-width="2.95" d="M57.8039+56.5599C56.6467+54.6313+58.9428+57.1305+58.4434+58.1295C58.3063+58.4035+57.8411+57.8714+57.6876+57.6063C57.5617+57.3887+56.6987+54.3514+56.8737+54.1764C56.9475+54.1026+56.9162+54.3932+56.99+54.467C57.1385+54.6155+57.5994+54.5752+57.9201+54.8158C58.0588+54.9198+57.9883+54.2959+58.1527+54.3508C58.4982+54.4659+58.8509+55.4227+58.7922+55.746C58.7775+55.8269+58.698+55.9025+58.6178+55.9204C57.7698+56.1088+57.4551+53.4369+57.4551+55.1646" fill="none" stroke-linecap="round" opacity="0.996481" stroke-linejoin="round"/>
</g>
</svg>
