<?xml version="1.0" encoding="UTF-8" standalone="no"?> <!-- Created with Vectornator for iOS (http://vectornator.io/) --><!DOCTYPE svg PUBLIC "-//W3C//DTD SVG 1.1//EN" "http://www.w3.org/Graphics/SVG/1.1/DTD/svg11.dtd">
<svg style="fill-rule:evenodd;clip-rule:evenodd;stroke-linecap:round;stroke-linejoin:round;" xmlns:vectornator="http://vectornator.io" xmlns:xlink="http://www.w3.org/1999/xlink" xmlns="http://www.w3.org/2000/svg" xml:space="preserve" version="1.1" viewBox="0 0 64 64">
<metadata>
<vectornator:setting key="DimensionsVisible" value="1"/>
<vectornator:setting key="SnapToGrid" value="0"/>
<vectornator:setting key="SnapToPoints" value="1"/>
<vectornator:setting key="GuidesVisible" value="1"/>
<vectornator:setting key="RulersVisible" value="1"/>
<vectornator:setting key="SnapToEdges" value="1"/>
<vectornator:setting key="DisplayWhiteBackground" value="0"/>
<vectornator:setting key="SnapToGuides" value="1"/>
<vectornator:setting key="GridSpacing" value="16"/>
<vectornator:setting key="Units" value="Pixels"/>
<vectornator:setting key="DynamicGuides" value="1"/>
<vectornator:setting key="New" value="1"/>
</metadata>
<defs/>
<g id="レイヤー 1" vectornator:layerName="レイヤー 1">
<path stroke="#ff0137" stroke-width="5.09" d="M9.92811+58.6333C10.4743+58.087+12.7201+58.6535+13.577+58.5464C16.5811+58.1709+19.6254+58.4595+22.6991+58.4595C23.4676+58.4595+25.531+58.2507+26.0873+58.807" fill="none" stroke-linecap="round" opacity="0.996481" stroke-linejoin="round"/>
<path stroke="#ff0137" stroke-width="5.09" d="M18.2684+57.2432C18.2684+52.3945+17.6094+47.3258+18.0946+42.474C18.3837+39.5833+18.2648+36.6922+18.529+33.7863C18.6792+32.134+18.9111+30.2401+18.7027+28.5736C18.2116+24.6441+18.7063+20.613+18.2684+16.6714C17.8753+13.1342+17.834+9.4728+17.834+5.89853" fill="none" stroke-linecap="round" opacity="0.996481" stroke-linejoin="round"/>
<path stroke="#ff0137" stroke-width="5.09" d="M18.4421+4.59537C18.7888+4.42204+24.0789+6.44123+24.6104+6.68043C27.2866+7.8847+30.3619+8.05924+33.1244+9.02613C35.7224+9.9354+38.1544+11.282+40.7697+12.1537C43.2539+12.9818+45.4304+14.433+47.8068+15.542C48.6655+15.9427+49.5938+16.0929+50.4131+16.5845C51.6954+17.3539+53.1258+18.1213+54.4963+18.6695C54.6308+18.7233+54.9242+18.8097+54.8439+18.9302C54.6269+19.2556+53.5454+19.552+53.1932+19.7121C51.4015+20.5265+49.3391+21.061+47.633+21.9709C45.1161+23.3132+42.5902+23.5631+39.9009+24.4035C36.6254+25.4271+32.8978+26.806+29.91+28.4867C28.9581+29.0221+28.21+29.7276+27.2168+30.2243C25.1552+31.2551+23.0966+32.3712+21.1353+33.3519C20.9446+33.4472+19.5279+34.2495+19.4846+34.2206C18.8277+33.7827+19.1524+30.9625+19.1371+30.398C19.0446+26.974+19.5508+23.5854+19.4846+20.1465C19.4489+18.2856+19.1285+18.4097+19.8322+16.932C19.8435+16.9082+20.8284+15.555+21.0484+15.8026C21.876+16.7335+21.7955+18.1791+22.1779+19.3646C22.9295+21.6948+23.4047+22.0646+23.3073+24.4035C23.2571+25.6074+23.0199+26.4895+22.3516+27.4442C22.1351+27.7535+21.5412+28.4009+21.396+28.0523C20.9726+27.0362+21.3291+25.8516+21.3091+24.751C21.2534+21.6866+21.0903+18.6055+21.3091+15.542C21.4354+13.7735+21.5233+12.0976+22.4385+12.4144C24.2299+13.0345+24.9915+15.3292+25.653+17.1058C26.6974+19.9107+28.5272+25.2894+26.348+28.1392C25.1971+29.6442+24.1169+28.6818+22.9598+27.7917C21.2861+26.5042+20.9627+25.245+20.4403+23.1003C20.1563+21.9344+20.0549+20.7306+19.919+19.5383C19.7941+18.4415+19.7021+17.34+19.6584+16.237C19.5862+14.4137+19.4668+12.5853+19.5715+10.7637C19.6126+10.0485+19.4785+9.04721+20.0928+8.67862C20.6149+8.36538+21.2879+9.05656+21.7435+9.46052C22.8483+10.4402+23.7862+11.5998+24.6973+12.7619C26.9324+15.6124+30.1+19.7615+30.6919+23.5347C30.7826+24.1133+30.7948+24.8131+30.4312+25.2722C29.4056+26.5678+27.3977+24.6751+26.0005+23.4478C23.1093+20.9083+20.3235+17.7147+19.5715+13.8044C19.4675+13.2633+19.3972+12.6389+19.6584+12.1537C20.1455+11.2492+22.5272+11.4663+22.9598+11.5456C26.6016+12.2133+29.7082+14.7473+32.4294+17.1058C33.1722+17.7495+33.8832+18.4374+34.5145+19.1908C34.9055+19.6575+35.2085+20.9703+34.6014+21.0152C32.8965+21.1415+31.3755+19.7674+29.9968+18.7564C28.0874+17.3561+24.3966+14.4941+27.3036+11.98C31.4129+8.42604+36.5915+13.5409+39.119+16.4976C39.9872+17.5133+41.2647+18.6447+41.1172+19.9727C41.0242+20.8094+39.3884+20.0879+38.5977+19.799C36.5287+19.043+33.9654+18.2647+31.995+17.2795C31.7386+17.1513+31.3307+16.9525+31.3869+16.6714C31.6186+15.5126+33.5957+15.7014+34.7751+15.6288C38.5035+15.3994+44.0514+15.4628+46.8511+18.4958C47.7096+19.4259+43.4214+20.042+43.1154+20.1465C42.4892+20.3603+41.9042+20.6801+41.2909+20.9284C37.3248+22.5337+33.8518+22.6188+29.8231+21.2759C29.6231+21.2092+29.3796+21.2338+29.2149+21.1021C29.151+21.051+29.3082+20.9437+29.3887+20.9284C29.9322+20.8248+30.4871+20.7871+31.0394+20.7546C31.9649+20.7002+32.8924+20.681+33.8195+20.6677C36.4416+20.6303+40.0021+20.272+42.4203+21.6234C42.7642+21.8155+43.1154+22.1852+43.1154+22.579C43.1154+23.7467+40.6851+24.7471+40.2484+24.9247C39.2977+25.3115+38.3035+25.6052+37.2946+25.7935C33.833+26.4397+30.3361+26.0162+26.8692+25.7066C26.0819+25.6363+24.877+26.0661+24.5236+25.3591C24.2566+24.8251+25.3827+24.5028+25.9136+24.2297C26.5257+23.9149+27.1977+23.7315+27.8249+23.4478C29.2289+22.8127+30.7661+21.5287+32.3425+21.3628C33.7438+21.2153+32.9965+23.738+32.3425+24.1428C31.2974+24.7898+29.989+24.4035+28.8674+24.4035" fill="none" stroke-linecap="round" opacity="0.996481" stroke-linejoin="round"/>
<path stroke="#ff0137" stroke-width="5.09" d="M20.5272+35.8713C20.9517+36.0836+20.8404+37.3438+20.8747+37.8695C20.9464+38.9691+21.0084+40.0696+21.0484+41.1709C21.1717+44.5617+21.2222+47.9411+21.2222+51.3355C21.2222+52.7835+21.2222+54.2315+21.2222+55.6794C21.2222+56.1136+21.1946+56.4807+21.1353+56.8957C21.1067+57.0964+21.1353+57.7066+21.1353+57.5039C21.1353+50.6901+20.8555+43.8917+21.3091+37.0876C21.5203+33.92+22.1613+29.9141+21.1353+26.836" fill="none" stroke-linecap="round" opacity="0.996481" stroke-linejoin="round"/>
<path stroke="#ff0137" stroke-width="5.09" d="M22.0041+58.2858C22.0041+56.8534+27.3161+57.0695+28.3462+57.0695C28.4909+57.0695+30.5184+57.2429+30.0837+57.6776C29.2734+58.4879+28.2818+57.0373+27.6511+56.722C27.1078+56.4503+26.2426+56.4892+25.653+56.5482C24.6251+56.651+23.9124+56.9966+22.786+56.8088C22.3045+56.7286+22.5466+56.2477+21.7435+56.1138C19.0231+55.6604+15.6418+56.0795+12.9688+56.4613C12.2404+56.5654+11.5885+56.4002+10.8838+56.6351" fill="none" stroke-linecap="round" opacity="0.996481" stroke-linejoin="round"/>
<path stroke="#ff0137" stroke-width="5.09" d="M10.1887+56.722C10.5036+56.5645+10.469+56.1551+10.9706+55.9401C13.0394+55.0535+15.9754+55.8265+18.1815+55.6794C19.3905+55.5988+20.5041+54.9664+21.7435+54.8975C24.4386+54.7478+27.0624+55.1582+29.7362+55.1582" fill="none" stroke-linecap="round" opacity="0.996481" stroke-linejoin="round"/>
<path stroke="#ff0137" stroke-width="5.09" d="M26.5217+59.4152C27.3963+59.2694+26.8722+59.371+28.0855+59.0677" fill="none" stroke-linecap="round" opacity="0.996481" stroke-linejoin="round"/>
</g>
</svg>
